<svg width="414" height="343" viewBox="0 0 414 343" fill="none" xmlns="http://www.w3.org/2000/svg">
<g clip-path="url(#clip0_818_9229)">
<path d="M62.8785 275.924C62.8785 296.662 50.5594 303.904 35.3641 303.904C35.0104 303.904 34.6585 303.9 34.3085 303.89C33.6048 303.875 32.9068 303.844 32.2183 303.795C18.5033 302.825 7.84784 295.209 7.84784 275.924C7.84784 255.966 33.3275 230.781 35.2494 228.911L35.2532 228.91C35.3259 228.836 35.3641 228.8 35.3641 228.8C35.3641 228.8 62.8785 255.183 62.8785 275.924Z" fill="#2D3748"/>
<path d="M34.3601 300.73L44.4247 286.658L34.3353 302.275L34.3085 303.89C33.6048 303.875 32.9068 303.844 32.2184 303.795L33.3026 283.046L33.295 282.886L33.3141 282.855L33.4155 280.896L23.3012 265.238L33.4461 279.426L33.471 279.841L34.2913 264.164L25.6324 247.986L34.3965 261.41L35.2494 228.911L35.2532 228.8V228.91L35.1117 254.537L43.7305 244.377L35.0753 256.744L34.8478 270.781L42.8967 257.311L34.8134 272.848L34.6871 280.651L46.3714 261.9L34.6432 283.374L34.3601 300.73Z" fill="#F2F2F2"/>
<g opacity="0.7">
<path opacity="0.7" d="M382.01 130.561V125.567H357.058V148.667C357.058 149.958 357.57 151.197 358.483 152.11C359.395 153.023 360.633 153.536 361.924 153.536H377.145C378.435 153.536 379.673 153.023 380.585 152.11C381.498 151.197 382.01 149.958 382.01 148.667V143.548C383.731 143.548 385.381 142.863 386.598 141.645C387.815 140.428 388.498 138.776 388.498 137.054C388.498 135.333 387.815 133.681 386.598 132.464C385.381 131.246 383.731 130.561 382.01 130.561ZM382.01 141.05V133.058C383.069 133.058 384.085 133.48 384.833 134.229C385.582 134.979 386.003 135.995 386.003 137.054C386.003 138.114 385.582 139.13 384.833 139.88C384.085 140.629 383.069 141.05 382.01 141.05Z" fill="url(#paint0_linear_818_9229)"/>
</g>
<path d="M381.208 131.343C380.036 131.343 378.891 131.691 377.916 132.343C376.943 132.994 376.184 133.92 375.735 135.003C375.287 136.086 375.169 137.278 375.398 138.428C375.627 139.578 376.191 140.634 377.019 141.463C377.847 142.292 378.903 142.857 380.052 143.086C381.201 143.314 382.392 143.197 383.475 142.748C384.557 142.3 385.482 141.54 386.133 140.565C386.784 139.59 387.131 138.444 387.131 137.272C387.131 135.699 386.507 134.191 385.397 133.08C384.286 131.968 382.779 131.343 381.208 131.343ZM381.208 140.92C380.486 140.92 379.782 140.706 379.182 140.305C378.583 139.904 378.116 139.335 377.84 138.667C377.564 138.001 377.492 137.267 377.633 136.56C377.773 135.852 378.12 135.202 378.63 134.692C379.14 134.182 379.79 133.834 380.497 133.693C381.204 133.553 381.936 133.625 382.602 133.901C383.269 134.177 383.838 134.645 384.239 135.245C384.639 135.845 384.853 136.55 384.853 137.272C384.853 138.239 384.469 139.167 383.786 139.851C383.102 140.536 382.175 140.92 381.208 140.92Z" fill="#4FD1C5"/>
<path opacity="0.1" d="M381.208 131.343C380.036 131.343 378.891 131.691 377.916 132.343C376.943 132.994 376.184 133.92 375.735 135.003C375.287 136.086 375.169 137.278 375.398 138.428C375.627 139.578 376.191 140.634 377.019 141.463C377.847 142.292 378.903 142.857 380.052 143.086C381.201 143.314 382.392 143.197 383.475 142.748C384.557 142.3 385.482 141.54 386.133 140.565C386.784 139.59 387.131 138.444 387.131 137.272C387.131 135.699 386.507 134.191 385.397 133.08C384.286 131.968 382.779 131.343 381.208 131.343ZM381.208 140.92C380.486 140.92 379.782 140.706 379.182 140.305C378.583 139.904 378.116 139.335 377.84 138.667C377.564 138.001 377.492 137.267 377.633 136.56C377.773 135.852 378.12 135.202 378.63 134.692C379.14 134.182 379.79 133.834 380.497 133.693C381.204 133.553 381.936 133.625 382.602 133.901C383.269 134.177 383.838 134.645 384.239 135.245C384.639 135.845 384.853 136.55 384.853 137.272C384.853 138.239 384.469 139.167 383.786 139.851C383.102 140.536 382.175 140.92 381.208 140.92Z" fill="black"/>
<path d="M358.424 126.783H381.208V147.851C381.208 149.036 380.737 150.173 379.899 151.011C379.062 151.849 377.926 152.32 376.742 152.32H362.891C361.707 152.32 360.57 151.849 359.733 151.011C358.895 150.173 358.424 149.036 358.424 147.851V126.783Z" fill="#4FD1C5"/>
<path opacity="0.1" d="M377.106 126.783V147.874C377.106 149.053 376.639 150.185 375.806 151.018C374.972 151.852 373.842 152.32 372.664 152.32H374.943C376.121 152.32 377.25 151.852 378.083 151.018C378.917 150.185 379.385 149.053 379.385 147.874V126.783H377.106Z" fill="black"/>
<path d="M362.92 109.784C362.725 109.79 362.535 109.839 362.361 109.928C362.187 110.015 362.034 110.141 361.914 110.295C361.615 110.838 362.157 111.449 362.651 111.821C363.564 112.509 364.527 113.186 365.147 114.147C365.768 115.107 365.963 116.448 365.284 117.368C364.398 118.571 362.285 118.83 362.08 120.309C361.949 121.259 362.77 122.07 363.601 122.546C365.654 123.723 368.299 124.037 369.785 125.878C370.401 124.612 371.776 123.88 373.147 123.568C374.518 123.255 375.943 123.279 377.333 123.067C377.559 123.063 377.783 123.005 377.983 122.899C378.184 122.791 378.357 122.64 378.487 122.454C378.876 121.665 377.768 120.718 378.151 119.926C378.442 119.323 379.296 119.37 379.92 119.128C380.936 118.735 381.355 117.426 381.067 116.375C380.779 115.323 379.964 114.502 379.107 113.827C376.799 112.012 374.023 110.944 371.215 110.176C369.909 109.819 368.376 109.259 367.02 109.205C365.71 109.152 364.217 109.562 362.92 109.784Z" fill="#EEEEEE"/>
<path d="M203.014 157.705L155.376 306.235" stroke="#E0E0E0" stroke-width="8" stroke-miterlimit="10"/>
<g opacity="0.7">
<path opacity="0.7" d="M239.923 322.963C234.064 323.303 228.843 328.216 228.843 328.216L226.319 321.949L226.113 322.016C227.346 316.614 252.436 205.247 227.32 195.645C208.02 188.268 187.55 179.139 171.511 179.482V153.173H193.996V152.235H211.798C215.21 149.796 210.251 148.118 204.71 147.07C204.936 146.812 205.134 146.531 205.304 146.232L233.815 95.0391C233.815 95.0391 240.373 84.2561 236.156 79.0991C231.94 73.942 225.851 92.2261 225.851 92.2261L202.429 125.981C202.429 125.981 178.789 101.323 163.751 89.0591C162.082 87.4046 160.199 85.9798 158.153 84.825C155.408 82.9663 153.33 82.0032 152.305 82.3808C152.295 82.3848 152.286 82.3912 152.276 82.3952C149.997 81.7638 147.643 81.4436 145.278 81.4433H143.405V77.5966C147.602 76.2092 151.442 73.9122 154.65 70.8693C157.859 67.8264 160.358 64.1126 161.968 59.9925C164.611 55.6121 166.224 50.6883 166.688 45.5925C167.151 40.4967 166.452 35.3621 164.642 30.5763C164.923 30.5433 165.192 30.45 165.432 30.303C166.281 29.7564 166.364 28.5607 166.282 27.5543C165.975 24.1764 164.849 20.9244 163.004 18.0793C161.158 15.2344 158.649 12.882 155.69 11.2258C153.317 9.92691 150.599 9.03197 148.849 6.96769C147.345 5.1939 146.714 2.71305 144.893 1.26576C142.731 -0.45363 139.608 -0.158043 136.956 0.609175C134.003 1.46405 131.206 2.78496 128.67 4.52208C125.801 6.48905 123.211 9.01605 119.907 10.1048C117.56 10.8784 115.014 10.863 112.652 11.5897C110.839 12.1647 109.186 13.1562 107.824 14.4851C106.463 15.8139 105.431 17.4433 104.812 19.2427C104.21 21.1758 103.982 23.206 104.141 25.2244C102.704 27.6276 101.574 30.2013 100.776 32.8854C100.599 32.981 100.421 33.0745 100.246 33.173L100.76 32.9419C98.9681 38.9946 98.9085 45.429 100.588 51.5139C102.267 57.5989 105.619 63.0904 110.261 67.3645C113.929 72.1437 118.948 75.7087 124.667 77.5966V82.2501C120.587 83.1309 116.695 84.7262 113.169 86.9628L113.165 86.956C113.165 86.956 112.866 87.1416 112.354 87.4863C112.303 87.5203 112.251 87.5552 112.201 87.5901C108.734 89.9443 97.1188 98.5474 97.5106 107.844C97.4953 108.202 97.4978 108.56 97.5166 108.92C96.8828 111.607 96.5616 114.358 96.5599 117.118V184.584C96.5514 192.039 99.0542 199.279 103.665 205.134C93.8894 207.326 87.6598 210.643 87.6598 214.355C87.7092 214.665 87.7092 214.981 87.6598 215.292C87.6598 221.895 107.374 227.247 131.694 227.247C134.634 227.247 137.506 227.168 140.285 227.018L167.764 249.282L123.73 320.073C123.73 320.073 109.208 331.325 120.451 335.076C131.694 338.827 154.647 341.64 154.647 341.64C154.647 341.64 158.395 335.076 153.242 332.263C148.089 329.45 141.062 330.857 141.062 330.857L141.999 325.23C141.999 325.23 218.356 259.596 202.429 237.092C199.382 232.787 196.335 228.345 193.261 223.972L205.281 225.068L208.016 328.102L208.359 327.991C207.672 330.014 202.816 345.291 213.58 342.706C225.104 339.939 246.071 330.177 246.071 330.177C246.071 330.177 245.783 322.623 239.923 322.963ZM193.996 145.672L171.511 139.139V119.887L195.951 145.851C194.749 145.73 193.996 145.672 193.996 145.672Z" fill="url(#paint1_linear_818_9229)"/>
</g>
<path d="M133.848 78.398C152.062 78.398 166.828 63.6204 166.828 45.3914C166.828 27.1624 152.062 12.3849 133.848 12.3849C115.634 12.3849 100.868 27.1624 100.868 45.3914C100.868 63.6204 115.634 78.398 133.848 78.398Z" fill="black"/>
<path d="M171.408 121.031L196.577 147.771C197.107 148.333 197.763 148.764 198.489 149.026C199.217 149.288 199.995 149.375 200.762 149.28C201.529 149.185 202.263 148.91 202.903 148.477C203.545 148.045 204.075 147.468 204.451 146.792L232.33 96.7345L224.542 93.9846L201.64 126.991C201.64 126.991 158.644 82.1402 152.628 84.3575C146.612 86.5747 171.408 121.031 171.408 121.031Z" fill="#4FD1C5"/>
<path d="M123.312 213.633L86.21 309.902" stroke="#BDBDBD" stroke-width="5" stroke-miterlimit="10"/>
<path d="M141.635 213.633L178.737 309.902" stroke="#BDBDBD" stroke-width="5" stroke-miterlimit="10"/>
<path d="M132.473 226.011C156.253 226.011 175.531 220.777 175.531 214.321C175.531 207.865 156.253 202.63 132.473 202.63C108.694 202.63 89.4163 207.865 89.4163 214.321C89.4163 220.777 108.694 226.011 132.473 226.011Z" fill="#B84733"/>
<path d="M132.473 225.094C156.253 225.094 175.531 219.86 175.531 213.404C175.531 206.948 156.253 201.714 132.473 201.714C108.694 201.714 89.4163 206.948 89.4163 213.404C89.4163 219.86 108.694 225.094 132.473 225.094Z" fill="#F55F44"/>
<path d="M114.356 234.784L154.981 247.312" stroke="#BDBDBD" stroke-width="5" stroke-miterlimit="10"/>
<path d="M150.591 234.784L109.966 247.312" stroke="#BDBDBD" stroke-width="5" stroke-miterlimit="10"/>
<path d="M132.975 83.4406H145.757C152.56 83.4406 159.085 86.1449 163.895 90.9597C168.706 95.7745 171.408 102.303 171.408 109.112V176.959H98.1197V118.324C98.1197 109.072 101.792 100.199 108.328 93.6577C114.865 87.116 123.731 83.4406 132.975 83.4406Z" fill="#4FD1C5"/>
<path d="M98.1197 176.959H171.408V216.842H130.642C122.016 216.842 113.744 213.413 107.645 207.309C101.546 201.205 98.1197 192.926 98.1197 184.294V176.959Z" fill="#2D3748"/>
<path opacity="0.05" d="M99.1095 110.964L143.925 153.58H193.395V147.161L150.796 134.784L114.356 89.7485C114.356 89.7485 97.8088 99.9798 99.1095 110.964Z" fill="black"/>
<path d="M99.1095 110.047L143.925 152.662H193.395V146.245L150.796 133.867L114.356 88.8319C114.356 88.8319 97.8088 99.0632 99.1095 110.047Z" fill="#4FD1C5"/>
<path d="M193.395 146.245C193.395 146.245 217.214 148.078 210.801 152.662H193.395V146.245Z" fill="#FDA57D"/>
<path d="M224.543 93.9846C224.543 93.9846 230.497 76.1057 234.62 81.1484C238.743 86.1909 232.33 96.7345 232.33 96.7345L224.543 93.9846Z" fill="#FDA57D"/>
<path opacity="0.05" d="M98.1197 176.959V179.099L171.408 179.251V176.959H98.1197Z" fill="black"/>
<path d="M155.13 219.384L204.429 223.88L207.104 324.629L224.753 318.879C224.753 318.879 251.149 204.732 225.979 195.11C200.809 185.488 173.601 172.819 157.357 183.144C141.113 193.47 155.13 219.384 155.13 219.384Z" fill="#2D3748"/>
<path opacity="0.1" d="M158.125 188.419C158.125 188.419 185.15 202.173 188.815 217.759L158.125 188.419Z" fill="black"/>
<path d="M129.268 216.384L167.744 247.557L124.686 316.779L142.551 321.821C142.551 321.821 217.214 257.642 201.64 235.638C186.066 213.633 170.492 187.961 151.254 187.503C132.016 187.045 129.268 216.384 129.268 216.384Z" fill="#2D3748"/>
<path opacity="0.05" d="M189.73 115.072L199.35 131.575L201.64 126.991L189.73 115.072Z" fill="black"/>
<path d="M124.686 316.779C124.686 316.779 110.487 327.78 121.48 331.448C132.473 335.115 154.919 337.866 154.919 337.866C154.919 337.866 158.582 331.448 153.544 328.698C148.506 325.947 141.635 327.322 141.635 327.322L142.551 321.821L124.686 316.779Z" fill="#333333"/>
<path d="M207.513 324.304C207.513 324.304 201.276 341.615 212.544 338.909C223.812 336.203 244.314 326.658 244.314 326.658C244.314 326.658 244.033 319.271 238.303 319.604C232.573 319.936 227.469 324.74 227.469 324.74L225 318.612L207.513 324.304Z" fill="#333333"/>
<path d="M134.764 67.3958C129.705 67.3958 125.603 71.5006 125.603 76.5642V85.733C125.603 90.7963 129.705 94.9012 134.764 94.9012C139.823 94.9012 143.925 90.7963 143.925 85.733V76.5642C143.925 71.5006 139.823 67.3958 134.764 67.3958Z" fill="#FDA57D"/>
<path opacity="0.05" d="M134.764 68.3126C132.334 68.3126 130.004 69.2786 128.286 70.998C126.568 72.7174 125.603 75.0494 125.603 77.4811V80.5961C131.553 82.5551 137.974 82.5551 143.925 80.5961V77.4811C143.925 75.0494 142.96 72.7174 141.241 70.998C139.524 69.2786 137.193 68.3126 134.764 68.3126Z" fill="black"/>
<path d="M134.764 81.1484C150.954 81.1484 164.079 68.0129 164.079 51.8093C164.079 35.6057 150.954 22.4702 134.764 22.4702C118.574 22.4702 105.448 35.6057 105.448 51.8093C105.448 68.0129 118.574 81.1484 134.764 81.1484Z" fill="#FDA57D"/>
<path opacity="0.05" d="M105.448 50.478C105.448 50.478 112.778 52.3682 116.9 44.0318C121.023 35.6955 124.229 31.1483 141.177 36.0744C158.125 41.0004 161.534 41.6015 162.348 36.9433C162.906 33.7602 156.879 26.0286 153.006 21.4511C151.117 19.218 148.034 17.886 144.739 17.886H125.603L114.152 23.1909L105.448 30.7694L103.616 41.0004L105.448 50.478Z" fill="black"/>
<path d="M105.448 49.5611C105.448 49.5611 112.778 51.4514 116.9 43.1149C121.023 34.7786 124.229 30.2315 141.177 35.1575C158.125 40.0836 161.534 40.6846 162.348 36.0264C162.906 32.8433 156.879 25.1118 153.006 20.5342C151.117 18.3011 148.034 16.9691 144.739 16.9691H125.603L114.152 22.2741L105.448 29.8526L103.616 40.0836L105.448 49.5611Z" fill="black"/>
<path d="M108.425 55.4767C110.07 55.4767 111.403 52.8085 111.403 49.5172C111.403 46.2258 110.07 43.5577 108.425 43.5577C106.781 43.5577 105.448 46.2258 105.448 49.5172C105.448 52.8085 106.781 55.4767 108.425 55.4767Z" fill="#FDA57D"/>
<path d="M106.297 34.1825C105.619 30.3449 104.951 26.3152 106.188 22.6196C106.793 20.8601 107.803 19.2669 109.134 17.9675C110.465 16.6681 112.082 15.6986 113.854 15.1364C116.164 14.4257 118.654 14.4408 120.948 13.6844C124.179 12.6198 126.711 10.1489 129.517 8.22549C131.997 6.52688 134.732 5.23526 137.619 4.39936C140.213 3.64915 143.267 3.36012 145.38 5.04139C147.16 6.45658 147.778 8.88242 149.249 10.6168C150.96 12.6353 153.618 13.5105 155.938 14.7805C158.83 16.4 161.285 18.7001 163.09 21.4821C164.894 24.264 165.994 27.4438 166.295 30.7468C166.375 31.731 166.293 32.9002 165.464 33.4346C164.948 33.6969 164.367 33.8029 163.793 33.7398C152.077 33.5722 140.346 33.4039 128.678 32.3275C125.051 31.9928 121.416 31.57 117.776 31.708C112.143 31.9279 106.642 33.4813 101.724 36.241" fill="black"/>
<path d="M55.5626 295.806H15.017C6.72331 295.806 0 302.534 0 310.835C0 319.136 6.72331 325.864 15.017 325.864H55.5626C63.8563 325.864 70.5796 319.136 70.5796 310.835C70.5796 302.534 63.8563 295.806 55.5626 295.806Z" fill="#4FD1C5"/>
<path d="M263.783 188.496C263.961 188.49 264.129 188.415 264.253 188.287C264.377 188.158 264.446 187.987 264.446 187.808C264.446 187.63 264.377 187.458 264.253 187.331C264.129 187.202 263.961 187.127 263.783 187.121C263.605 187.127 263.436 187.202 263.312 187.331C263.188 187.458 263.119 187.63 263.119 187.808C263.119 187.987 263.188 188.158 263.312 188.287C263.436 188.415 263.605 188.49 263.783 188.496Z" fill="url(#paint2_linear_818_9229)"/>
<path d="M364.599 157.705L412.236 327.364" stroke="#E0E0E0" stroke-width="8" stroke-miterlimit="10"/>
<path d="M412.429 152.737H155.183V162.769H412.429V152.737Z" fill="#E0E0E0"/>
<path d="M257.752 150.37H221.565C219.921 150.37 218.588 151.705 218.588 153.35C218.588 154.996 219.921 156.33 221.565 156.33H257.752C259.396 156.33 260.729 154.996 260.729 153.35C260.729 151.705 259.396 150.37 257.752 150.37Z" fill="#2D3748"/>
<g opacity="0.7">
<path opacity="0.7" d="M336.051 83.9269H257.165C250.026 83.9269 244.239 89.7188 244.239 96.8639V143.468C244.239 150.613 250.026 156.405 257.165 156.405H336.051C343.191 156.405 348.977 150.613 348.977 143.468V96.8639C348.977 89.7188 343.191 83.9269 336.051 83.9269Z" fill="url(#paint3_linear_818_9229)"/>
</g>
<path d="M333.033 85.264H258.398C251.61 85.264 246.106 90.7716 246.106 97.5661V144.103C246.106 150.897 251.61 156.405 258.398 156.405H333.033C339.822 156.405 345.325 150.897 345.325 144.103V97.5661C345.325 90.7716 339.822 85.264 333.033 85.264Z" fill="#3E3F49"/>
<path d="M334.407 85.264H259.772C252.984 85.264 247.481 90.7716 247.481 97.5661V144.103C247.481 150.897 252.984 156.405 259.772 156.405H334.407C341.196 156.405 346.699 150.897 346.699 144.103V97.5661C346.699 90.7716 341.196 85.264 334.407 85.264Z" fill="#2D3748"/>
<path d="M301.725 123.552C303.496 123.552 304.931 122.116 304.931 120.344C304.931 118.572 303.496 117.135 301.725 117.135C299.954 117.135 298.519 118.572 298.519 120.344C298.519 122.116 299.954 123.552 301.725 123.552Z" fill="#E0E0E0"/>
</g>
<defs>
<linearGradient id="paint0_linear_818_9229" x1="372.778" y1="153.536" x2="372.778" y2="125.567" gradientUnits="userSpaceOnUse">
<stop stop-color="#808080" stop-opacity="0.25"/>
<stop offset="0.53514" stop-color="#808080" stop-opacity="0.12"/>
<stop offset="1" stop-color="#808080" stop-opacity="0.1"/>
</linearGradient>
<linearGradient id="paint1_linear_818_9229" x1="81526.1" y1="282669" x2="81526.1" y2="26031.1" gradientUnits="userSpaceOnUse">
<stop stop-color="#808080" stop-opacity="0.25"/>
<stop offset="0.53514" stop-color="#808080" stop-opacity="0.12"/>
<stop offset="1" stop-color="#808080" stop-opacity="0.1"/>
</linearGradient>
<linearGradient id="paint2_linear_818_9229" x1="1226.41" y1="856.977" x2="1226.41" y2="852.849" gradientUnits="userSpaceOnUse">
<stop stop-color="#808080" stop-opacity="0.25"/>
<stop offset="0.53514" stop-color="#808080" stop-opacity="0.12"/>
<stop offset="1" stop-color="#808080" stop-opacity="0.1"/>
</linearGradient>
<linearGradient id="paint3_linear_818_9229" x1="68066.6" y1="24811.7" x2="68066.6" y2="13352.9" gradientUnits="userSpaceOnUse">
<stop stop-color="#808080" stop-opacity="0.25"/>
<stop offset="0.53514" stop-color="#808080" stop-opacity="0.12"/>
<stop offset="1" stop-color="#808080" stop-opacity="0.1"/>
</linearGradient>
<clipPath id="clip0_818_9229">
<rect width="414" height="343" fill="white"/>
</clipPath>
</defs>
</svg>
